<svg width="78" height="16" viewBox="0 0 78 16" fill="none" xmlns="http://www.w3.org/2000/svg">
<path d="M10.1758 1.26953L9.62891 5.39062C9.4401 5.33854 9.2513 5.30273 9.0625 5.2832C8.8737 5.26367 8.6849 5.25391 8.49609 5.25391C8.01432 5.25391 7.55534 5.31901 7.11914 5.44922C6.68294 5.57292 6.29557 5.76497 5.95703 6.02539C5.625 6.28581 5.35807 6.61133 5.15625 7.00195C4.96094 7.39258 4.86328 7.85156 4.86328 8.37891C4.86328 8.71745 4.91536 9.01042 5.01953 9.25781C5.13021 9.50521 5.2832 9.71029 5.47852 9.87305C5.67383 10.0358 5.90495 10.1562 6.17188 10.2344C6.4388 10.3125 6.73177 10.3516 7.05078 10.3516C7.29167 10.3516 7.54232 10.3255 7.80273 10.2734C8.06315 10.2214 8.32031 10.153 8.57422 10.0684C8.82812 9.98372 9.07552 9.88607 9.31641 9.77539C9.55729 9.66471 9.77865 9.55078 9.98047 9.43359L9.58984 14.0234C9.33594 14.1536 9.05924 14.2708 8.75977 14.375C8.4668 14.4727 8.16406 14.5605 7.85156 14.6387C7.53906 14.7103 7.22656 14.7656 6.91406 14.8047C6.60156 14.8438 6.30208 14.8633 6.01562 14.8633C5.1888 14.8633 4.41732 14.7103 3.70117 14.4043C2.98503 14.0983 2.36328 13.6784 1.83594 13.1445C1.30859 12.6107 0.891927 11.9824 0.585938 11.2598C0.286458 10.5306 0.136719 9.74609 0.136719 8.90625C0.136719 7.79297 0.296224 6.74479 0.615234 5.76172C0.934245 4.77214 1.40299 3.90625 2.02148 3.16406C2.63997 2.42188 3.40495 1.83594 4.31641 1.40625C5.23438 0.976562 6.28906 0.761719 7.48047 0.761719C7.92969 0.761719 8.38867 0.797526 8.85742 0.869141C9.33268 0.940755 9.77214 1.07422 10.1758 1.26953ZM19.3555 9.82422L18.9453 14.1602L10.7227 14.8047L11.0352 0.859375H16.1133L15.3906 9.82422H19.3555ZM31.8848 7.51953C31.8848 8.11198 31.8164 8.6849 31.6797 9.23828C31.543 9.78516 31.3444 10.2995 31.084 10.7812C30.8301 11.263 30.5176 11.7057 30.1465 12.1094C29.7819 12.5065 29.3685 12.8483 28.9062 13.1348C28.4505 13.4212 27.9525 13.6458 27.4121 13.8086C26.8717 13.9648 26.2988 14.043 25.6934 14.043C25.1074 14.043 24.5475 13.9681 24.0137 13.8184C23.4863 13.6686 22.9915 13.4603 22.5293 13.1934C22.0671 12.9199 21.6471 12.5944 21.2695 12.2168C20.8984 11.8327 20.5794 11.4095 20.3125 10.9473C20.0521 10.4785 19.847 9.97721 19.6973 9.44336C19.554 8.90951 19.4824 8.35286 19.4824 7.77344C19.4824 7.20703 19.5508 6.65365 19.6875 6.11328C19.8242 5.56641 20.0195 5.05208 20.2734 4.57031C20.5339 4.08854 20.8464 3.64583 21.2109 3.24219C21.5755 2.83854 21.9824 2.49023 22.4316 2.19727C22.8874 1.9043 23.3789 1.67643 23.9062 1.51367C24.4336 1.35091 24.9902 1.26953 25.5762 1.26953C26.5202 1.26953 27.3796 1.41602 28.1543 1.70898C28.9355 2.00195 29.5996 2.42188 30.1465 2.96875C30.6999 3.50911 31.1263 4.16667 31.4258 4.94141C31.7318 5.70964 31.8848 6.56901 31.8848 7.51953ZM27.5488 7.77344C27.5488 7.49349 27.5065 7.22331 27.4219 6.96289C27.3438 6.69596 27.2266 6.46159 27.0703 6.25977C26.9141 6.05143 26.7188 5.88542 26.4844 5.76172C26.2565 5.63151 25.9928 5.56641 25.6934 5.56641C25.3874 5.56641 25.1139 5.62174 24.873 5.73242C24.6322 5.8431 24.4238 5.99609 24.248 6.19141C24.0788 6.38021 23.9486 6.60482 23.8574 6.86523C23.7663 7.11914 23.7207 7.38932 23.7207 7.67578C23.7207 7.94922 23.7598 8.22266 23.8379 8.49609C23.916 8.76953 24.0332 9.01693 24.1895 9.23828C24.3457 9.45964 24.5378 9.63867 24.7656 9.77539C25 9.91211 25.2702 9.98047 25.5762 9.98047C25.8822 9.98047 26.1556 9.92188 26.3965 9.80469C26.6439 9.68099 26.8522 9.51823 27.0215 9.31641C27.1908 9.10807 27.321 8.87044 27.4121 8.60352C27.5033 8.33659 27.5488 8.0599 27.5488 7.77344ZM42.9102 1.23047L42.8125 5.37109L39.9023 5.48828L39.5508 14.5508L35.4297 14.7656L35.0586 5.70312L32.1484 5.85938L32.2656 1.25L42.9102 1.23047ZM55.0586 14.6094L50.1758 14.8438L50.1367 10.7227H47.8906L47.7539 15H43.3789L43.75 1.26953L48.3984 1.48438L48.1055 8.49609H50.2734L50.293 1.15234L54.7461 1.26953L55.0586 14.6094ZM66.8848 7.10938C66.8848 7.67578 66.8457 8.24219 66.7676 8.80859C65.6543 8.88021 64.5475 8.9974 63.4473 9.16016C62.347 9.31641 61.2467 9.47266 60.1465 9.62891C60.3158 10.0977 60.5794 10.472 60.9375 10.752C61.3021 11.0319 61.735 11.1719 62.2363 11.1719C62.4967 11.1719 62.7799 11.123 63.0859 11.0254C63.3984 10.9277 63.7077 10.8073 64.0137 10.6641C64.3197 10.5143 64.6126 10.3548 64.8926 10.1855C65.1725 10.0163 65.4134 9.86328 65.6152 9.72656L65.1465 14.1602C64.8926 14.3555 64.6159 14.5215 64.3164 14.6582C64.0234 14.7949 63.7174 14.9056 63.3984 14.9902C63.0794 15.0749 62.7572 15.1367 62.4316 15.1758C62.1061 15.2148 61.7871 15.2344 61.4746 15.2344C60.8301 15.2344 60.2409 15.1465 59.707 14.9707C59.1732 14.7949 58.6882 14.5508 58.252 14.2383C57.8223 13.9193 57.4447 13.5449 57.1191 13.1152C56.7936 12.6855 56.5234 12.2168 56.3086 11.709C56.0938 11.2012 55.931 10.6641 55.8203 10.0977C55.7096 9.53125 55.6543 8.95833 55.6543 8.37891C55.6543 7.77344 55.7096 7.16797 55.8203 6.5625C55.931 5.95703 56.097 5.37435 56.3184 4.81445C56.5462 4.25456 56.8294 3.73698 57.168 3.26172C57.513 2.77995 57.9134 2.36003 58.3691 2.00195C58.8249 1.64388 59.3392 1.36393 59.9121 1.16211C60.4915 0.960286 61.1296 0.859375 61.8262 0.859375C62.4056 0.859375 62.9329 0.940755 63.4082 1.10352C63.89 1.25977 64.3164 1.48112 64.6875 1.76758C65.0651 2.04753 65.3906 2.38281 65.6641 2.77344C65.944 3.16406 66.1719 3.59375 66.3477 4.0625C66.5299 4.52474 66.6634 5.01628 66.748 5.53711C66.8392 6.05143 66.8848 6.57552 66.8848 7.10938ZM62.9785 6.60156C62.9785 6.41927 62.959 6.23372 62.9199 6.04492C62.8809 5.84961 62.8158 5.67383 62.7246 5.51758C62.64 5.36133 62.526 5.23438 62.3828 5.13672C62.2396 5.03255 62.0605 4.98047 61.8457 4.98047C61.5853 4.98047 61.3542 5.05208 61.1523 5.19531C60.957 5.33203 60.7878 5.50781 60.6445 5.72266C60.5013 5.93099 60.3841 6.15885 60.293 6.40625C60.2018 6.65365 60.1335 6.88151 60.0879 7.08984L62.9785 6.81641V6.60156ZM77.5391 10C77.5391 10.8919 77.3828 11.6634 77.0703 12.3145C76.7643 12.959 76.3411 13.4928 75.8008 13.916C75.2669 14.3327 74.6387 14.6419 73.916 14.8438C73.1999 15.0391 72.4284 15.1367 71.6016 15.1367C71.2826 15.1367 70.931 15.0944 70.5469 15.0098C70.1693 14.9251 69.7852 14.821 69.3945 14.6973C69.0039 14.5671 68.6263 14.4303 68.2617 14.2871C67.9036 14.1374 67.5846 13.9974 67.3047 13.8672L67.7344 10.0391C68.2878 10.3711 68.8997 10.625 69.5703 10.8008C70.2474 10.9701 70.9115 11.0547 71.5625 11.0547C71.6862 11.0547 71.8359 11.0514 72.0117 11.0449C72.1875 11.0319 72.3535 11.0026 72.5098 10.957C72.6725 10.9049 72.8092 10.8301 72.9199 10.7324C73.0306 10.6348 73.0859 10.4948 73.0859 10.3125C73.0859 10.1888 73.0469 10.0846 72.9688 10C72.8906 9.90885 72.7897 9.83724 72.666 9.78516C72.5423 9.72656 72.4023 9.68424 72.2461 9.6582C72.0898 9.62565 71.9368 9.60286 71.7871 9.58984C71.6374 9.57682 71.4974 9.57031 71.3672 9.57031C71.237 9.57031 71.1328 9.57031 71.0547 9.57031C70.4948 9.57031 69.9837 9.48242 69.5215 9.30664C69.0658 9.13086 68.6719 8.88346 68.3398 8.56445C68.0143 8.23893 67.7604 7.84831 67.5781 7.39258C67.3958 6.93034 67.3047 6.41927 67.3047 5.85938C67.3047 5.09115 67.4577 4.4043 67.7637 3.79883C68.0762 3.18685 68.4896 2.66927 69.0039 2.24609C69.5247 1.81641 70.1204 1.48763 70.791 1.25977C71.4616 1.0319 72.1549 0.917969 72.8711 0.917969C73.1901 0.917969 73.5189 0.93099 73.8574 0.957031C74.196 0.976562 74.5312 1.01562 74.8633 1.07422C75.2018 1.13281 75.5306 1.20768 75.8496 1.29883C76.1686 1.38997 76.4714 1.50391 76.7578 1.64062L76.3867 5.60547C75.944 5.45573 75.4785 5.33203 74.9902 5.23438C74.5085 5.13021 74.0365 5.07812 73.5742 5.07812C73.4896 5.07812 73.3789 5.08138 73.2422 5.08789C73.112 5.08789 72.972 5.09766 72.8223 5.11719C72.679 5.13021 72.5326 5.15299 72.3828 5.18555C72.2331 5.2181 72.0996 5.26367 71.9824 5.32227C71.8652 5.37435 71.7708 5.44596 71.6992 5.53711C71.6276 5.62826 71.5951 5.73568 71.6016 5.85938C71.6081 6.0026 71.6602 6.11328 71.7578 6.19141C71.862 6.26953 71.9922 6.32812 72.1484 6.36719C72.3112 6.39974 72.487 6.41602 72.6758 6.41602C72.8711 6.41602 73.0632 6.41276 73.252 6.40625C73.4408 6.39323 73.6165 6.38346 73.7793 6.37695C73.9421 6.36393 74.0755 6.36068 74.1797 6.36719C74.7005 6.39974 75.1693 6.51042 75.5859 6.69922C76.0026 6.88802 76.3542 7.13867 76.6406 7.45117C76.9336 7.76367 77.1549 8.13802 77.3047 8.57422C77.4609 9.00391 77.5391 9.47917 77.5391 10Z" fill="white"/>
</svg>
